<svg id="Layer_1" data-name="Layer 1" xmlns="http://www.w3.org/2000/svg" viewBox="0 0 500 500"><defs><style>.cls-1{fill:#0cb2dd;}.cls-2{fill:#f48414;}.cls-3{fill:#009641;}.cls-4{fill:#8b63a9;}</style></defs><title>devicetree-Logo</title><path d="M410.09,419.36H90.7A9.67,9.67,0,0,1,81,409.69V90.31a9.67,9.67,0,0,1,9.66-9.66H410.09a9.67,9.67,0,0,1,9.66,9.66V409.69A9.67,9.67,0,0,1,410.09,419.36ZM90.7,87.09a3.22,3.22,0,0,0-3.22,3.22V409.69a3.22,3.22,0,0,0,3.22,3.22H410.09a3.22,3.22,0,0,0,3.22-3.22V90.31a3.22,3.22,0,0,0-3.22-3.22H90.7Z"/><path d="M216.25,84.36A3.22,3.22,0,0,1,213,81.14V53.22a3.22,3.22,0,1,1,6.44,0V81.14A3.22,3.22,0,0,1,216.25,84.36Z"/><path d="M283,84.36a3.22,3.22,0,0,1-3.22-3.22V53.22a3.22,3.22,0,0,1,6.44,0V81.14A3.22,3.22,0,0,1,283,84.36Z"/><path d="M349.72,84.36a3.22,3.22,0,0,1-3.22-3.22V53.22a3.22,3.22,0,0,1,6.44,0V81.14A3.22,3.22,0,0,1,349.72,84.36Z"/><path d="M149.52,84.36a3.22,3.22,0,0,1-3.22-3.22V53.22a3.22,3.22,0,1,1,6.44,0V81.14A3.22,3.22,0,0,1,149.52,84.36Z"/><path d="M349.72,450a3.22,3.22,0,0,1-3.22-3.22V418.86a3.22,3.22,0,1,1,6.44,0v27.92A3.22,3.22,0,0,1,349.72,450Z"/><path d="M149.52,450a3.22,3.22,0,0,1-3.22-3.22V418.86a3.22,3.22,0,1,1,6.44,0v27.92A3.22,3.22,0,0,1,149.52,450Z"/><path d="M80.76,286.59H52.84a3.22,3.22,0,0,1,0-6.44H80.76A3.22,3.22,0,0,1,80.76,286.59Z"/><path d="M80.76,219.86H52.84a3.22,3.22,0,1,1,0-6.44H80.76A3.22,3.22,0,1,1,80.76,219.86Z"/><path d="M80.76,153.12H52.84a3.22,3.22,0,0,1,0-6.44H80.76A3.22,3.22,0,0,1,80.76,153.12Z"/><path d="M80.76,353.32H52.84a3.22,3.22,0,0,1,0-6.44H80.76A3.22,3.22,0,0,1,80.76,353.32Z"/><path d="M447.16,286.59H419.24a3.22,3.22,0,0,1,0-6.44h27.92A3.22,3.22,0,0,1,447.16,286.59Z"/><path d="M447.16,219.86H419.24a3.22,3.22,0,1,1,0-6.44h27.92A3.22,3.22,0,1,1,447.16,219.86Z"/><path d="M447.16,153.12H419.24a3.22,3.22,0,1,1,0-6.44h27.92A3.22,3.22,0,0,1,447.16,153.12Z"/><path d="M447.16,353.32H419.24a3.22,3.22,0,1,1,0-6.44h27.92A3.22,3.22,0,0,1,447.16,353.32Z"/><path d="M250.41,389.46a3.42,3.42,0,0,1-3.42-3.41l-0.55-198.84a3.42,3.42,0,0,1,3.41-3.43h0a3.42,3.42,0,0,1,3.42,3.41L253.83,386a3.42,3.42,0,0,1-3.41,3.43h0Z"/><path class="cls-1" d="M250.4,135a32.87,32.87,0,1,0,32.87,32.87A32.91,32.91,0,0,0,250.4,135h0Z"/><path d="M283.2,389.61a3.42,3.42,0,0,1-3.42-3.41l0-126.66,64.57-35.68a3.42,3.42,0,0,1,3.31,6l-61,33.72V386.18a3.42,3.42,0,0,1-3.41,3.43h0Z"/><path class="cls-2" d="M355.52,193a32.87,32.87,0,1,0,32.87,32.87A32.91,32.91,0,0,0,355.52,193h0Z"/><path d="M216,389.46h0a3.42,3.42,0,0,1-3.4-3.44l0-55.83-61-33.72a3.42,3.42,0,0,1,3.31-6l64.58,35.68v59.89A3.42,3.42,0,0,1,216,389.46Z"/><path class="cls-3" d="M145.28,256.83a32.87,32.87,0,1,0,32.87,32.87,32.91,32.91,0,0,0-32.87-32.87h0Z"/><path d="M250.4,264.09a3.4,3.4,0,0,1-1.7-.46l-79.46-45.8a3.42,3.42,0,1,1,3.41-5.92l79.46,45.8A3.42,3.42,0,0,1,250.4,264.09Z"/><path class="cls-4" d="M169.74,178.21a32.87,32.87,0,1,0,32.87,32.87,32.91,32.91,0,0,0-32.87-32.87h0Z"/><path d="M146.44,386.9c0-1.88,1.84-3.41,4.11-3.42l198.14-.55c2.28,0,4.13,1.52,4.13,3.41h0c0,1.88-1.84,3.41-4.11,3.42l-198.14.55c-2.28,0-4.13-1.52-4.13-3.41h0Z"/><path d="M283,450a3.22,3.22,0,0,1-3.22-3.22V418.86a3.22,3.22,0,1,1,6.44,0v27.92A3.22,3.22,0,0,1,283,450Z"/><path d="M216.25,450a3.22,3.22,0,0,1-3.22-3.22V418.86a3.22,3.22,0,1,1,6.44,0v27.92A3.22,3.22,0,0,1,216.25,450Z"/></svg>